<svg width="50" height="50" viewBox="0 0 19 19" fill="none" xmlns="http://www.w3.org/2000/svg">
<path d="M0.511719 18.5391C0.101562 18.1406 0.113281 17.4609 0.511719 17.0625L8.01172 9.55078L0.511719 2.05078C0.113281 1.65234 0.113281 0.984375 0.511719 0.574219C0.910156 0.152344 1.60156 0.164062 2 0.574219L9.5 8.07422L17 0.574219C17.3984 0.164062 18.0781 0.164062 18.4883 0.574219C18.8984 0.972656 18.8867 1.65234 18.4883 2.05078L10.9883 9.55078L18.4883 17.0625C18.8867 17.4609 18.8867 18.1289 18.4883 18.5391C18.0898 18.9492 17.3984 18.9375 17 18.5391L9.5 11.0391L2 18.5391C1.60156 18.9375 0.921875 18.9375 0.511719 18.5391Z" fill="inherit"/>
</svg>
