<svg width="50" height="50" viewBox="0 0 13 17" fill="none" xmlns="http://www.w3.org/2000/svg">
<path d="M12.8359 16.2578C12.8359 16.6641 12.5625 16.9609 12.1641 16.9609H1.67969C1.27344 16.9609 0.992188 16.6641 0.992188 16.2578C0.992188 15.8516 1.27344 15.5625 1.67969 15.5625H6.84375C6.67969 15.5469 6.52344 15.4609 6.39062 15.3281L1.21094 10.1328C1.0625 9.97656 0.992188 9.8125 0.992188 9.625C0.992188 9.24219 1.27344 8.94531 1.66406 8.94531C1.85156 8.94531 2.03906 9.00781 2.15625 9.13281L3.9375 10.8828L6.27344 13.4453L6.21875 11.7812V1.48438C6.21875 1.08594 6.50781 0.796875 6.91406 0.796875C7.32031 0.796875 7.60938 1.08594 7.60938 1.48438V11.7812L7.55469 13.4531L9.89062 10.8828L11.6719 9.13281C11.7969 9.00781 11.9766 8.94531 12.1641 8.94531C12.5547 8.94531 12.8359 9.24219 12.8359 9.625C12.8359 9.8125 12.7734 9.97656 12.625 10.1328L7.4375 15.3281C7.30469 15.4609 7.15625 15.5469 6.99219 15.5625H12.1641C12.5625 15.5625 12.8359 15.8516 12.8359 16.2578Z" fill="inherit"/>
</svg>
