<svg width="33" height="33" viewBox="0 0 33 33" fill="none" xmlns="http://www.w3.org/2000/svg">
<path d="M16.7344 32.6562C8.03125 32.6562 0.796875 25.4219 0.796875 16.7188C0.796875 8 8.01562 0.78125 16.7188 0.78125C25.4375 0.78125 32.6719 8 32.6719 16.7188C32.6719 25.4219 25.4531 32.6562 16.7344 32.6562ZM8.92188 12.7969C9.6875 12.7969 10.3125 12.1562 10.3125 11.4062C10.3125 10.625 9.70312 10.0156 8.92188 10.0156C8.15625 10.0156 7.54688 10.625 7.54688 11.4062C7.54688 12.1719 8.15625 12.7969 8.92188 12.7969ZM12.8125 12.3906H24.875C25.4375 12.3906 25.875 11.9531 25.875 11.4062C25.875 10.8594 25.4375 10.4375 24.875 10.4375H12.8125C12.25 10.4375 11.8438 10.8594 11.8438 11.4062C11.8438 11.9375 12.2812 12.3906 12.8125 12.3906ZM8.92188 18.125C9.6875 18.125 10.3125 17.5 10.3125 16.7344C10.3125 15.9688 9.6875 15.3438 8.92188 15.3438C8.15625 15.3438 7.54688 15.9531 7.54688 16.7344C7.54688 17.5156 8.15625 18.125 8.92188 18.125ZM12.8125 17.7188H24.875C25.4375 17.7188 25.875 17.2812 25.875 16.7344C25.875 16.1875 25.4375 15.7656 24.875 15.7656H12.8125C12.2812 15.7656 11.8438 16.2031 11.8438 16.7344C11.8438 17.2656 12.2812 17.7188 12.8125 17.7188ZM8.92188 23.4531C9.70312 23.4531 10.3125 22.8438 10.3125 22.0625C10.3125 21.3125 9.6875 20.6719 8.92188 20.6719C8.15625 20.6719 7.54688 21.2969 7.54688 22.0625C7.54688 22.8438 8.15625 23.4531 8.92188 23.4531ZM12.8125 23.0469H24.875C25.4375 23.0469 25.875 22.6094 25.875 22.0625C25.875 21.5156 25.4375 21.0938 24.875 21.0938H12.8125C12.2812 21.0938 11.8438 21.5312 11.8438 22.0625C11.8438 22.6094 12.25 23.0469 12.8125 23.0469Z" fill="#222227"/>
</svg>
