<svg width="50" height="50" viewBox="0 0 26 21" fill="none" xmlns="http://www.w3.org/2000/svg">
<path d="M3.74219 20.6523C1.29297 20.6523 0.0625 19.4453 0.0625 17.0195V4.08203C0.0625 1.66797 1.28125 0.460938 3.39062 0.460938H22.2578C24.707 0.460938 25.9375 1.67969 25.9375 4.08203V17.0195C25.9375 19.4336 24.7188 20.6523 22.6094 20.6523H3.74219ZM11.6055 11.1484C12.0977 11.6406 12.5547 11.875 13.0234 11.875C13.4805 11.875 13.9375 11.6523 14.4414 11.1484L23.2656 2.42969C23.0078 2.3125 22.6914 2.25391 22.3281 2.25391H3.67188C3.32031 2.25391 3.01562 2.3125 2.75781 2.41797L11.6055 11.1484ZM1.85547 17.0195C1.85547 17.0898 1.85547 17.1602 1.86719 17.2188L8.59375 10.5742L1.85547 3.95312C1.85547 4.03516 1.85547 3.98828 1.85547 4.08203V17.0195ZM24.1445 4.09375C24.1445 4.09375 24.1445 4.09375 24.1445 3.98828L17.4531 10.5742L24.1445 17.1836C24.1445 17.1367 24.1445 17.0781 24.1445 17.0312V4.09375ZM3.67188 18.8594H22.3281C22.668 18.8594 22.9609 18.8125 23.2188 18.6953L16.2227 11.7812L15.4609 12.5312C14.6406 13.3398 13.8438 13.6797 13.0234 13.6797C12.1914 13.6797 11.4062 13.3398 10.5859 12.5312L9.82422 11.7812L2.81641 18.707C3.0625 18.8125 3.34375 18.8594 3.67188 18.8594Z" fill="inherit"/>
</svg>
