<svg width="50" height="50" viewBox="0 0 23 23" fill="none" xmlns="http://www.w3.org/2000/svg">
<path d="M11.1201 22.2012C17.1143 22.2012 22.0771 17.2275 22.0771 11.2441C22.0771 5.25 17.1035 0.287109 11.1094 0.287109C5.12598 0.287109 0.163086 5.25 0.163086 11.2441C0.163086 17.2275 5.13672 22.2012 11.1201 22.2012ZM14.5898 13.9941C14.0957 13.9941 13.7734 13.6504 13.7734 13.124V11.2227L13.9346 9.49316L12.334 11.2012L8.28418 15.2617C8.1123 15.4229 7.9082 15.5195 7.63965 15.5195C7.15625 15.5195 6.82324 15.1973 6.82324 14.6924C6.82324 14.4775 6.93066 14.252 7.0918 14.0908L11.1631 10.0303L12.8926 8.41895L11.249 8.59082H9.25098C8.71387 8.59082 8.37012 8.26855 8.37012 7.78516C8.37012 7.29102 8.70312 6.96875 9.22949 6.96875H14.4717C15.041 6.96875 15.4062 7.22656 15.4062 7.88184V13.1025C15.4062 13.6182 15.0732 13.9941 14.5898 13.9941Z" fill="inherit"/>
</svg>
