<svg width="50" height="50" viewBox="0 0 33 33" fill="none" xmlns="http://www.w3.org/2000/svg">
<path d="M16.7344 32.6562C8.03125 32.6562 0.796875 25.4219 0.796875 16.7188C0.796875 8 8.01562 0.78125 16.7188 0.78125C25.4375 0.78125 32.6719 8 32.6719 16.7188C32.6719 25.4219 25.4531 32.6562 16.7344 32.6562ZM25.0156 16.7031C25.0156 16.3438 24.8906 16.0938 24.5625 15.7656L19.125 10.2969C18.9062 10.0781 18.625 9.96875 18.2812 9.96875C17.6094 9.96875 17.1094 10.4688 17.1094 11.1406C17.1094 11.4844 17.2656 11.7812 17.4688 12.0156L19.4688 14L21.4219 15.625L18.0156 15.4844H9.64062C8.9375 15.4844 8.42188 15.9844 8.42188 16.7031C8.42188 17.4062 8.9375 17.9062 9.64062 17.9062H18.0156L21.4219 17.7812L19.4688 19.4062L17.4688 21.3906C17.25 21.6094 17.1094 21.9062 17.1094 22.25C17.1094 22.9219 17.6094 23.4375 18.2812 23.4375C18.625 23.4375 18.9062 23.3125 19.125 23.0938L24.5625 17.6406C24.875 17.3438 25.0156 17.0625 25.0156 16.7031Z" fill="inherit"/>
</svg>
