<svg width="50" height="50" viewBox="0 0 33 33" fill="none" xmlns="http://www.w3.org/2000/svg">
<path d="M16.7344 32.6562C8.03125 32.6562 0.796875 25.4219 0.796875 16.7188C0.796875 8 8.01562 0.78125 16.7188 0.78125C25.4375 0.78125 32.6719 8 32.6719 16.7188C32.6719 25.4219 25.4531 32.6562 16.7344 32.6562ZM8.46875 16.7031C8.46875 17.0625 8.625 17.3438 8.92188 17.6406L14.3594 23.0938C14.5781 23.3125 14.8594 23.4375 15.2031 23.4375C15.875 23.4375 16.375 22.9219 16.375 22.25C16.375 21.9062 16.2344 21.6094 16.0156 21.3906L14.0156 19.4062L12.0625 17.7812L15.4844 17.9062H23.8438C24.5625 17.9062 25.0625 17.4062 25.0625 16.7031C25.0625 15.9844 24.5469 15.4844 23.8438 15.4844H15.4844L12.0781 15.625L14.0156 14L16.0156 12.0156C16.2188 11.7812 16.375 11.4844 16.375 11.1406C16.375 10.4688 15.875 9.96875 15.2031 9.96875C14.8594 9.96875 14.5781 10.0781 14.3594 10.2969L8.92188 15.7656C8.59375 16.0938 8.46875 16.3438 8.46875 16.7031Z" fill="inherit" />
</svg>
